HIERARCHY
ROOT hip
{
	OFFSET 0.000000 0.000000 0.000000
	CHANNELS 6 Xposition Yposition Zposition Zrotation Yrotation Xrotation 
	JOINT lhipjoint
	{
		OFFSET 0.000000 0.000000 0.000000
		CHANNELS 3 Zrotation Yrotation Xrotation
		JOINT lfemur
		{
			OFFSET 1.363060 -1.794630 0.839290
			CHANNELS 3 Zrotation Yrotation Xrotation
			JOINT ltibia
			{
				OFFSET 2.448110 -6.726130 0.000000
				CHANNELS 3 Zrotation Yrotation Xrotation
				JOINT lfoot
				{
					OFFSET 2.562200 -7.039590 0.000000
					CHANNELS 3 Zrotation Yrotation Xrotation
					JOINT ltoes
					{
						OFFSET 0.157640 -0.433110 2.322550
						CHANNELS 3 Zrotation Yrotation Xrotation
						End Site
						{
							OFFSET 0.000000 0.000000 0.000000
						}
					}
				}
			}
		}
	}
	JOINT rhipjoint
	{
		OFFSET 0.000000 0.000000 0.000000
		CHANNELS 3 Zrotation Yrotation Xrotation
		JOINT rfemur
		{
			OFFSET -1.305520 -1.794630 0.839290
			CHANNELS 3 Zrotation Yrotation Xrotation
			JOINT rtibia
			{
				OFFSET -2.542530 -6.985550 0.000000
				CHANNELS 3 Zrotation Yrotation Xrotation
				JOINT rfoot
				{
					OFFSET -2.568260 -7.056230 0.000000
					CHANNELS 3 Zrotation Yrotation Xrotation
					JOINT rtoes
					{
						OFFSET -0.164730 -0.452590 2.363150
						CHANNELS 3 Zrotation Yrotation Xrotation
						End Site
						{
							OFFSET 0.000000 0.000000 0.000000
						}
					}
				}
			}
		}
	}
	JOINT lowerback
	{
		OFFSET 0.000000 0.000000 0.000000
		CHANNELS 3 Zrotation Yrotation Xrotation
		JOINT upperback
		{
			OFFSET 0.028270 2.035590 -0.193380
			CHANNELS 3 Zrotation Yrotation Xrotation
			JOINT thorax
			{
				OFFSET 0.056720 2.048850 -0.042750
				CHANNELS 3 Zrotation Yrotation Xrotation
				JOINT lowerneck
				{
					OFFSET 0.000000 0.000000 0.000000
					CHANNELS 3 Zrotation Yrotation Xrotation
					JOINT upperneck
					{
						OFFSET -0.054170 1.746240 0.172020
						CHANNELS 3 Zrotation Yrotation Xrotation
						JOINT head
						{
							OFFSET 0.104070 1.761360 -0.123970
							CHANNELS 3 Zrotation Yrotation Xrotation
							End Site
							{
								OFFSET 0.000000 0.000000 0.000000
							}
						}
					}
				}
				JOINT lclavicle
				{
					OFFSET 0.000000 0.000000 0.000000
					CHANNELS 3 Zrotation Yrotation Xrotation
					JOINT lhumerus
					{
						OFFSET 3.362410 1.200890 -0.311210
						CHANNELS 3 Zrotation Yrotation Xrotation
						JOINT lradius
						{
							OFFSET 4.983000 -0.000000 -0.000000
							CHANNELS 3 Zrotation Yrotation Xrotation
							JOINT lwrist
							{
								OFFSET 3.483560 -0.000000 -0.000000
								CHANNELS 3 Zrotation Yrotation Xrotation
								JOINT lhand
								{
									OFFSET 0.000000 0.000000 0.000000
									CHANNELS 3 Zrotation Yrotation Xrotation
									JOINT lfingers
									{
										OFFSET 0.715260 -0.000000 -0.000000
										CHANNELS 3 Zrotation Yrotation Xrotation
										End Site
										{
											OFFSET 0.000000 0.000000 0.000000
										}
									}
								}
								JOINT lthumb
								{
									OFFSET 0.000000 0.000000 0.000000
									CHANNELS 3 Zrotation Yrotation Xrotation
									End Site
									{
										OFFSET 0.000000 0.000000 0.000000
									}
								}
							}
						}
					}
				}
				JOINT rclavicle
				{
					OFFSET 0.000000 0.000000 0.000000
					CHANNELS 3 Zrotation Yrotation Xrotation
					JOINT rhumerus
					{
						OFFSET -3.136600 1.374050 -0.404650
						CHANNELS 3 Zrotation Yrotation Xrotation
						JOINT rradius
						{
							OFFSET -5.241900 -0.000000 -0.000000
							CHANNELS 3 Zrotation Yrotation Xrotation
							JOINT rwrist
							{
								OFFSET -3.444170 -0.000000 -0.000000
								CHANNELS 3 Zrotation Yrotation Xrotation
								JOINT rhand
								{
									OFFSET 0.000000 0.000000 0.000000
									CHANNELS 3 Zrotation Yrotation Xrotation
									JOINT rfingers
									{
										OFFSET -0.622530 -0.000000 -0.000000
										CHANNELS 3 Zrotation Yrotation Xrotation
										End Site
										{
											OFFSET 0.000000 0.000000 0.000000
										}
									}
								}
								JOINT rthumb
								{
									OFFSET 0.000000 0.000000 0.000000
									CHANNELS 3 Zrotation Yrotation Xrotation
									End Site
									{
										OFFSET 0.000000 0.000000 0.000000
									}
								}
							}
						}
					}
				}
			}
		}
	}
}
MOTION
Frames: 7
Frame Time: 0.008333
-1.073158 16.241121 -11.164368 -172.352202 34.832717 171.132444 3.090800 2.685767 1.076680 -9.517624 -8.434924 -5.495401 4.865471 12.003769 41.137001 3.634881 -19.107772 6.507292 0.593200 -4.931000 -13.711700 -5.376454 -1.817078 -3.050085 15.620183 -17.002856 30.262978 -4.467763 -10.424881 33.152686 3.326199 -22.590750 4.505424 -1.439200 7.584600 -21.459200 9.378478 -0.035515 -2.198619 2.045795 -0.616101 -4.283131 3.240217 -0.015937 1.011806 -3.706485 4.698753 -12.393132 1.443076 8.006286 12.049941 -3.254800 4.520200 1.405900 0.670360 -9.697134 4.131162 -71.803358 48.199094 1.375821 19.695065 -35.477009 -6.046136 0.364767 0.438320 134.399929 13.052363 8.943115 2.163500 -7.125000 0.000000 0.000000 -11.494100 38.957100 1.738200 8.365801 11.601380 4.845063 18.859880 1.075106 -95.372345 -154.728962 31.540375 -112.559430 -1.267333 2.105329 141.015408 38.519053 -22.161300 -14.680900 7.125000 0.000000 0.000000 54.052400 -41.238400 7.842400 
-1.097051 16.240250 -11.211670 -172.178162 33.032110 170.870429 3.192493 2.705428 1.067399 -9.833164 -9.313959 -5.370662 4.883329 12.052010 41.324267 3.648778 -19.886961 7.005024 0.517600 -4.611000 -12.802200 -5.369655 -1.839761 -3.033224 16.974498 -17.871226 30.684837 -4.529569 -10.499600 33.462979 3.492758 -23.304995 4.474597 -1.179900 6.894000 -19.401800 8.600106 1.041114 -1.890951 1.714996 0.863839 -4.233780 2.303432 0.675102 0.874794 -3.717046 4.277839 -12.492867 1.572990 7.352747 12.082926 -3.091600 4.184300 1.402000 0.574932 -9.872681 4.165312 -73.015618 47.147146 0.359982 20.620994 -36.096914 -6.338009 0.401305 0.507417 133.624561 13.012686 9.191289 2.231300 -7.125000 0.000000 0.000000 -11.515100 39.219800 1.665900 8.180674 11.770578 4.525430 17.104942 3.415997 -91.463860 -153.213279 32.716770 -112.086970 -1.233058 2.143659 146.420227 39.277167 -23.460927 -15.889100 7.125000 0.000000 0.000000 55.323300 -42.138600 6.181800 
-1.123460 16.237735 -11.253556 -172.046509 31.254703 170.578223 3.299993 2.723167 1.053473 -10.188223 -10.168596 -5.267210 4.909345 12.107309 41.544266 3.651883 -20.657588 7.514885 0.447600 -4.292300 -11.900400 -5.352450 -1.863103 -3.016813 18.251522 -18.711452 30.990331 -4.581469 -10.556229 33.701059 3.702014 -24.226409 4.471815 -0.944600 6.190000 -17.336700 7.861136 2.106744 -1.480430 1.381032 2.338663 -4.169949 1.326935 1.373000 0.820370 -3.799475 3.845382 -12.718595 1.776925 6.686018 12.174068 -2.833500 3.842200 1.452400 0.457501 -10.039443 4.223921 -74.102459 46.034995 -0.376554 21.721076 -36.869614 -6.694983 0.395344 0.588308 132.953290 12.673963 9.073225 2.167900 -7.125000 0.000000 0.000000 -11.742500 39.131800 1.725700 7.945849 11.930914 4.120657 15.365406 5.657271 -88.104185 -151.185767 34.451455 -111.323210 -1.262632 2.102764 151.424438 41.188004 -24.022032 -17.223600 7.125000 0.000000 0.000000 56.430200 -42.254300 6.200500 
-1.149674 16.230577 -11.290411 -172.045112 29.509979 170.143317 3.411239 2.738354 1.037224 -10.669258 -10.950708 -5.100835 4.943445 12.162955 41.795053 3.643406 -21.465681 8.061783 0.367000 -3.891300 -10.771100 -5.307394 -1.870515 -3.002025 18.985393 -19.759281 31.241618 -4.607697 -10.596770 33.842060 3.876733 -25.021193 4.578761 -0.762100 5.575100 -15.556500 7.147305 3.122789 -0.874518 1.039502 3.774252 -4.099261 0.275203 2.059485 0.731164 -3.956620 3.439175 -12.896119 2.048898 6.027785 12.302491 -2.486900 3.507500 1.503800 0.339081 -10.248252 4.314426 -75.649632 44.771771 -2.163605 22.811328 -37.541007 -7.052333 0.373173 0.633324 133.434892 12.594907 8.953987 2.142200 -7.125000 0.000000 0.000000 -11.782600 39.061700 1.752400 7.649478 12.100143 3.632473 13.578012 7.564119 -85.364957 -148.354623 37.032381 -110.027687 -1.403666 1.899486 155.872749 45.864944 -22.673991 -18.737900 7.125000 0.000000 0.000000 56.399300 -40.161500 11.474700 
-1.176082 16.218872 -11.321656 -172.188542 27.802609 169.590716 3.526340 2.752843 1.020520 -11.314376 -11.685975 -4.877833 4.984030 12.215357 42.058889 3.624681 -22.197305 8.573973 0.305800 -3.555400 -9.829200 -5.244769 -1.868129 -2.989277 19.461166 -20.744356 31.487291 -4.612506 -10.605793 33.861679 4.101606 -25.990508 4.542554 -0.654500 5.174600 -14.407200 6.427615 4.128845 -0.126050 0.694472 5.215884 -4.024915 -0.761317 2.761196 0.614523 -4.207608 2.992066 -12.913771 2.297988 5.306770 12.448522 -2.105800 3.145400 1.503800 0.231094 -10.465747 4.425600 -77.486481 43.353110 -4.824212 23.740513 -38.019354 -7.347935 0.325341 0.591830 135.018704 13.195016 8.578198 2.146500 -7.125000 0.000000 0.000000 -11.261900 38.751300 1.759900 7.288553 12.237025 3.140143 11.567224 9.012084 -83.458079 -144.310721 40.777680 -107.888589 -1.460375 1.713185 159.249805 48.771369 -21.087858 -19.123300 7.125000 0.000000 0.000000 55.337500 -38.027300 16.577700 
-1.204135 16.201557 -11.346903 -172.478647 26.144441 168.957522 3.649762 2.768000 1.006053 -12.128498 -12.366071 -4.640410 5.026973 12.262929 42.327978 3.595958 -22.893678 9.099202 0.249600 -3.214700 -8.877100 -5.160818 -1.856471 -2.974744 19.681235 -21.650287 31.709554 -4.607200 -10.596194 33.805315 4.394959 -27.211871 4.405890 -0.649700 5.156100 -14.354200 5.734071 5.157958 0.748242 0.330720 6.711729 -3.949440 -1.941641 3.499314 0.479378 -4.306021 2.471619 -12.761996 2.460119 4.482703 12.580489 -1.796800 2.732100 1.452900 0.113650 -10.635611 4.557236 -79.031005 41.895736 -7.371589 24.590769 -38.401128 -7.618638 0.276037 0.514501 137.187958 14.007953 8.341187 2.202700 -7.125000 0.000000 0.000000 -10.610300 38.568600 1.703500 6.892970 12.334030 2.665209 9.285826 9.994804 -82.908731 -138.308820 45.837731 -104.181991 -1.399292 1.607299 161.063393 48.987146 -19.683214 -18.084100 7.125000 0.000000 0.000000 54.223300 -36.772600 19.045400 
-1.230640 16.182404 -11.366927 -172.853737 24.622222 168.293918 3.777029 2.781060 0.994425 -13.027211 -12.934940 -4.376115 5.066849 12.298429 42.574452 3.560126 -23.543864 9.620395 0.198100 -2.865900 -7.905700 -5.063040 -1.844102 -2.955217 19.779921 -22.367076 31.923713 -4.603090 -10.579267 33.733692 4.799303 -28.737291 3.892986 -0.665300 5.216200 -14.526200 5.178635 6.149634 1.755036 -0.038340 8.181570 -3.876390 -3.274566 4.242508 0.309631 -4.390552 2.018590 -12.406124 2.588354 3.731099 12.653362 -1.481500 2.354700 1.304700 -0.049666 -10.791625 4.722096 -80.400377 40.602528 -9.613662 25.404748 -38.765014 -7.887807 0.277972 0.444073 139.484964 14.877508 8.841675 2.458800 -7.125000 0.000000 0.000000 -10.000900 39.102800 1.470400 6.488491 12.394609 2.223958 6.810638 10.958858 -83.675692 -130.268951 51.189451 -98.634008 -1.257203 1.620513 161.495114 47.070518 -19.290829 -16.784900 7.125000 0.000000 0.000000 53.928200 -37.187800 17.629000 
